<svg width="87" height="76" viewBox="0 0 87 76" fill="none" xmlns="http://www.w3.org/2000/svg">
<path d="M25.5039 7.30669C25.6045 7.34103 25.705 7.37536 25.8086 7.41073C26.359 9.33397 26.2371 10.918 25.2776 12.6803C25.1166 12.9605 24.9544 13.2401 24.7891 13.5179C24.9284 13.4116 25.0677 13.3053 25.2112 13.1958C25.3962 13.0557 25.5811 12.9157 25.7661 12.7757C25.8577 12.7057 25.9492 12.6357 26.0436 12.5636C26.4269 12.2743 26.7863 12.0101 27.225 11.8108C27.3184 11.7584 27.4117 11.7059 27.5078 11.6518C27.5866 11.326 27.6642 10.9999 27.7322 10.6717C28.0446 9.65156 28.9644 8.60889 29.8867 8.0893C31.2457 7.52858 32.5003 7.30525 33.9648 7.41073C34.118 7.83112 34.1501 8.04072 34.0133 8.47299C33.0696 10.3422 31.915 11.6382 29.8867 12.3304C29.4121 12.3761 29.4121 12.3761 28.9521 12.3834C27.7095 12.4196 26.879 13.2502 25.9785 14.0268C26.0834 14.0023 26.1884 13.9778 26.2965 13.9526C28.035 13.5721 29.6903 13.4681 31.278 14.4191C31.558 14.6175 31.8281 14.8298 32.0957 15.0447C31.8123 15.8936 30.9913 16.1693 30.2266 16.5714C28.5276 17.3231 26.732 17.5826 24.9557 16.9107C24.4246 16.643 24.0304 16.3009 23.5996 15.8929C23.5225 15.9768 23.4454 16.0608 23.366 16.1473C23.0898 16.4018 23.0898 16.4018 22.75 16.4018C22.6939 16.5698 22.6378 16.7377 22.5801 16.9107C22.4679 16.9107 22.3558 16.9107 22.2402 16.9107C22.2402 17.0227 22.2402 17.1347 22.2402 17.25C22.1281 17.25 22.0159 17.25 21.9004 17.25C21.8548 17.348 21.8093 17.446 21.7623 17.5469C21.5576 17.9341 21.3213 18.2634 21.0508 18.6072C21.1391 18.5601 21.2273 18.5131 21.3183 18.4647C21.4368 18.4032 21.5553 18.3418 21.6774 18.2785C21.8518 18.187 21.8518 18.187 22.0298 18.0936C23.5856 17.4186 25.2903 17.7084 26.8281 18.2679C26.8281 19.139 26.5699 19.3455 25.9971 19.9597C24.7601 21.1466 23.346 21.8028 21.6103 21.8403C20.6718 21.7727 19.8744 21.5186 19.0117 21.1518C18.3239 22.2011 17.6787 23.2402 17.1426 24.375C17.2313 24.3094 17.32 24.2438 17.4114 24.1762C19.2074 22.9076 20.7257 22.5635 22.9199 22.6786C23.0709 23.1868 23.1232 23.4448 22.9206 23.9436C22.8398 24.0755 22.7589 24.2074 22.6757 24.3432C22.5551 24.5443 22.5551 24.5443 22.4321 24.7494C22.3688 24.8498 22.3055 24.9502 22.2402 25.0536C22.1281 25.0536 22.0159 25.0536 21.9004 25.0536C21.859 25.1548 21.8176 25.2561 21.7749 25.3604C21.2253 26.3135 19.8498 26.9349 18.8418 27.2589C17.8502 27.4057 16.9346 27.4958 15.9531 27.2589C15.2057 28.5382 14.9206 29.9001 14.5937 31.3304C14.6535 31.2442 14.7133 31.1581 14.775 31.0693C15.943 29.4434 17.1626 28.5356 19.1604 28.1496C19.6914 28.1072 19.6914 28.1072 20.3711 28.1072C20.3641 29.6849 19.876 31.054 18.8219 32.2462C17.6664 33.32 16.4133 34.0789 14.8061 34.0553C14.6703 34.0537 14.5345 34.0522 14.3946 34.0506C14.2409 34.0477 14.2409 34.0477 14.084 34.0447C13.9033 34.9223 13.8942 35.7621 13.9034 36.6529C13.9042 36.794 13.905 36.935 13.9058 37.0803C13.9077 37.4256 13.9108 37.7708 13.9141 38.1161C13.9562 38.0271 13.9984 37.9381 14.0418 37.8464C14.9241 36.0277 16.144 34.8998 17.9922 34.0447C18.4681 33.9174 18.4681 33.9174 18.8418 33.875C19.1585 34.1912 19.0633 34.6805 19.0754 35.1049C19.0654 36.7406 18.6047 38.252 17.4824 39.4732C17.3703 39.4732 17.2581 39.4732 17.1426 39.4732C17.0865 39.6412 17.0304 39.8091 16.9727 39.9822C16.5459 40.2545 16.5459 40.2545 16.0062 40.5229C15.8303 40.6128 15.6544 40.7027 15.4732 40.7953C14.9108 41.0087 14.5098 41.0401 13.9141 41C14.0185 41.6082 14.1254 42.216 14.2327 42.8237C14.2622 42.996 14.2918 43.1683 14.3223 43.3459C14.3518 43.5121 14.3814 43.6783 14.4119 43.8495C14.4519 44.0787 14.4519 44.0787 14.4928 44.3125C14.5911 44.7213 14.7293 45.0447 14.9336 45.4107C14.9586 45.2835 14.9835 45.1562 15.0093 45.0251C15.4105 43.197 16.1689 41.6813 17.6523 40.4911C18.1799 40.1721 18.3586 40.1518 19.0117 40.1518C19.5989 42.214 19.8257 44.0453 18.8206 46.0151C18.2291 47.0138 17.3951 48.0237 16.293 48.4643C16.1247 48.4643 15.9565 48.4643 15.7832 48.4643C16.4587 49.9736 17.191 51.4291 17.9922 52.875C17.9843 52.662 17.9764 52.449 17.9683 52.2296C17.9125 50.1032 18.0699 48.5794 19.4319 46.8633C19.764 46.524 20.0799 46.3673 20.541 46.2589C21.8241 47.7337 22.0597 49.6075 21.9761 51.5013C21.8493 53.0223 21.2232 54.2198 20.0916 55.2315C20.0156 55.2936 19.9396 55.3557 19.8613 55.4197C20.5374 56.8783 21.758 58.0253 22.8774 59.1518C22.9879 59.2636 23.0983 59.3754 23.2121 59.4906C23.3711 59.6483 23.3711 59.6483 23.5332 59.8092C23.6278 59.9032 23.7224 59.9972 23.8198 60.0941C24.1255 60.353 24.4247 60.5149 24.7891 60.6786C24.7111 60.5841 24.6331 60.4897 24.5528 60.3923C23.2085 58.7232 22.5113 57.1582 22.527 54.9956C22.5272 54.8697 22.5274 54.7439 22.5276 54.6142C22.5436 53.7115 22.6742 53.0091 23.0898 52.1964C24.6131 52.5337 25.8047 53.8284 26.6628 55.0698C28.2372 57.675 28.3927 59.9684 27.6777 62.8839C29.1354 63.8279 30.6893 64.5396 32.2656 65.2589C32.1392 65.133 32.0128 65.007 31.8826 64.8773C31.7286 64.7233 31.5747 64.5694 31.416 64.4107C31.3023 64.2988 31.1886 64.1868 31.0715 64.0714C29.7709 62.7119 28.9503 61.2222 28.9521 59.3214C28.9715 58.5608 29.0521 57.9761 29.377 57.2857C30.7402 57.3147 31.5275 58.0828 32.4654 59.0073C33.2368 59.834 33.8169 60.6791 34.3047 61.6964C34.3715 61.8231 34.4383 61.9497 34.5071 62.0801C35.1012 63.3304 35.0881 64.5797 34.9844 65.9375C34.9283 66.0495 34.8722 66.1614 34.8145 66.2768C34.9074 66.2967 35.0003 66.3167 35.096 66.3372C35.759 66.4817 36.419 66.632 37.0752 66.805C38.7563 67.2476 40.4457 67.6235 42.153 67.952C42.3456 67.9906 42.5382 68.0291 42.7366 68.0689C43.8355 68.2739 44.7624 68.3556 45.8594 68.1429C46.1246 68.0934 46.1246 68.0934 46.3952 68.043C47.0144 67.923 47.6317 67.7955 48.2489 67.6658C48.4669 67.6203 48.685 67.5749 48.9096 67.5281C50.4521 67.2036 51.9822 66.85 53.5059 66.4464C53.7323 66.3895 53.9588 66.3327 54.1855 66.2768C54.1551 66.1799 54.1246 66.0831 54.0933 65.9832C53.572 63.9992 54.2778 62.3678 55.2529 60.6408C55.5035 60.2364 55.7434 59.8511 56.0547 59.4911C56.1668 59.4911 56.279 59.4911 56.3945 59.4911C56.4342 59.3936 56.4738 59.296 56.5147 59.1955C57.038 58.2833 58.122 57.4862 59.1345 57.2009C59.2957 57.1729 59.4569 57.1449 59.623 57.1161C60.2509 58.0563 60.2102 59.257 60.0266 60.3499C59.5098 62.4637 58.1391 64.1579 56.3945 65.4286C56.9616 65.1649 57.5277 64.8993 58.0937 64.6334C58.2525 64.5596 58.4114 64.4858 58.575 64.4097C59.5359 63.9569 60.433 63.465 61.3223 62.8839C61.2677 62.6917 61.2132 62.4995 61.157 62.3015C60.5634 59.9127 60.9036 57.4102 62.1055 55.2726C62.865 54.1283 63.9288 52.7379 65.2305 52.1964C65.6022 52.2177 65.6022 52.2177 65.9102 52.3661C66.7348 53.6011 66.5728 55.4478 66.3097 56.859C65.9421 58.1702 65.3346 59.233 64.5508 60.3393C64.4386 60.5073 64.3265 60.6752 64.2109 60.8482C66.9059 58.4261 66.9059 58.4261 69.1387 55.5893C69.1387 55.4773 69.1387 55.3654 69.1387 55.25C68.8949 55.0299 68.8949 55.0299 68.5864 54.8047C67.7731 54.1357 67.4272 53.3472 67.0996 52.3661C66.9284 50.1934 67.1349 48.5552 68.1191 46.5982C68.1752 46.4863 68.2313 46.3743 68.2891 46.2589C68.7424 46.2723 69.047 46.3523 69.3982 46.6446C70.3901 47.718 71.0356 49.2169 71.0244 50.6882C71.0239 50.8161 71.0233 50.9441 71.0227 51.0759C71.0213 51.2077 71.0199 51.3396 71.0184 51.4755C71.0177 51.61 71.0169 51.7444 71.0161 51.883C71.0141 52.2137 71.0111 52.5444 71.0078 52.875C72.0722 50.7757 72.0722 50.7757 73.0469 48.6339C72.9625 48.5865 72.8782 48.539 72.7913 48.4901C71.3918 47.6656 70.2207 46.6388 69.7022 45.0562C69.2773 43.3916 69.4974 41.8168 69.8184 40.1518C70.6309 40.119 71.0773 40.304 71.6875 40.8304C73.1196 42.2353 73.6402 43.6462 74.0664 45.5804C74.4091 44.0588 74.6976 42.5446 74.916 41C74.7198 40.986 74.5235 40.972 74.3213 40.9576C72.8474 40.7585 71.956 40.0472 71.0058 38.9232C69.8994 37.3911 69.8999 35.8597 69.9883 34.0447C71.4235 34.0717 72.4923 34.7381 73.5387 35.6967C74.2691 36.4998 74.744 37.4312 75.0859 38.4554C75.1423 36.9519 74.9706 35.5277 74.7461 34.0447C74.5568 34.0587 74.3676 34.0727 74.1726 34.0871C72.8414 34.0847 71.4516 33.4375 70.498 32.5179C69.4959 31.3519 68.693 30.1695 68.597 28.6055C68.6076 28.497 68.6181 28.3886 68.6289 28.2768C69.2704 27.9566 69.897 28.033 70.5664 28.2231C72.1236 28.8004 73.2207 29.693 74.2363 30.9911C73.9419 29.6952 73.579 28.4778 73.0469 27.2589C72.8458 27.2688 72.6447 27.2786 72.4375 27.2888C70.8722 27.343 69.5992 27.377 68.2891 26.4107C68.1552 26.3141 68.0214 26.2174 67.8835 26.1178C66.876 25.3098 66.2488 24.3703 65.7402 23.1875C65.7402 23.0756 65.7402 22.9636 65.7402 22.8482C67.2851 22.3341 68.8979 22.6702 70.3281 23.3572C70.9088 23.6761 71.4122 24.0508 71.8574 24.5447C71.6086 23.8747 71.2936 23.2744 70.9335 22.6574C70.8321 22.482 70.7306 22.3066 70.6261 22.1259C70.3796 21.7412 70.1579 21.4524 69.8184 21.1518C69.6641 21.2323 69.5099 21.3128 69.3511 21.3957C68.0206 22.0343 66.7123 21.9555 65.3274 21.5004C64.5687 21.1896 63.8404 20.8062 63.1914 20.3036C63.1353 20.1356 63.0793 19.9677 63.0215 19.7947C62.9093 19.7947 62.7972 19.7947 62.6816 19.7947C62.3099 19.3175 62.3099 19.3175 62.0019 18.7768C62.058 18.6089 62.1141 18.4409 62.1719 18.2679C63.7061 17.5159 65.3105 17.6145 66.8912 18.1234C67.258 18.2635 67.6017 18.425 67.9492 18.6072C67.1908 17.7211 66.4073 16.8752 65.5703 16.0625C65.1306 16.221 64.769 16.3632 64.4021 16.6563C63.2371 17.4773 61.6617 17.3943 60.3133 17.1652C59.2772 16.9123 58.4445 16.5175 57.584 15.8929C57.4438 15.7914 57.3036 15.6899 57.1592 15.5854C57.0751 15.5189 56.991 15.4524 56.9043 15.3839C57.2191 14.6178 57.6456 14.3713 58.3778 14.0228C59.8355 13.5958 61.5442 13.7403 63.0215 14.0268C61.3887 12.7352 61.3887 12.7352 59.3808 12.3575C58.4395 12.2991 57.4157 11.7935 56.7344 11.1429C56.7344 11.0309 56.7344 10.9189 56.7344 10.8036C56.6222 10.8036 56.5101 10.8036 56.3945 10.8036C56.1335 10.3667 55.8756 9.92846 55.6193 9.48886C55.5077 9.3032 55.5077 9.3032 55.3939 9.11379C55.3244 8.99351 55.2548 8.87324 55.1832 8.74932C55.1182 8.63916 55.0533 8.529 54.9863 8.4155C54.8375 8.01448 54.8955 7.80779 55.0352 7.41073C56.8722 7.2955 58.4998 7.57897 59.9629 8.76787C61.2963 10.1376 61.2963 10.1376 61.3481 11.1283C61.5658 11.9194 62.0979 12.1544 62.7772 12.5636C62.898 12.64 63.0188 12.7163 63.1433 12.7949C63.4407 12.9822 63.7406 13.1656 64.041 13.3482C63.9694 13.2288 63.8978 13.1094 63.824 12.9864C62.9326 11.3825 62.6204 9.8384 63.0109 8.02569C63.0704 7.82275 63.13 7.61982 63.1914 7.41073C63.4901 7.29543 63.4901 7.29543 63.8711 7.24109C65.2258 8.02409 66.1548 9.57461 66.7598 10.9732C67.1044 12.3712 67.1348 13.7794 66.4199 15.0447C66.6387 15.7723 67.2662 16.2536 67.8005 16.7623C68.1426 17.0881 68.4723 17.417 68.7988 17.7589C68.7988 17.8709 68.7988 17.9829 68.7988 18.0982C68.911 18.0982 69.0231 18.0982 69.1387 18.0982C69.0916 17.9856 69.0445 17.873 68.996 17.757C68.9344 17.6072 68.8729 17.4574 68.8094 17.303C68.7483 17.1554 68.6872 17.0078 68.6243 16.8557C68.1347 15.5113 68.165 14.0821 68.6979 12.7518C68.9443 12.2623 69.2 11.7844 69.4785 11.3125C70.6043 11.7773 71.1452 12.8858 71.6132 13.9546C72.3068 15.7859 72.5141 17.4276 71.716 19.2592C71.5106 19.6379 71.2756 19.9666 71.0078 20.3036C71.3223 20.9579 71.6864 21.5834 72.0486 22.2121C72.1119 22.3223 72.1752 22.4325 72.2404 22.5461C72.3958 22.8165 72.5514 23.0869 72.707 23.3572C72.6991 23.2235 72.6913 23.0899 72.6831 22.9523C72.6155 20.915 72.9929 19.117 74.4062 17.5893C74.5748 17.4183 74.7443 17.2482 74.916 17.0804C75.3419 17.248 75.5574 17.359 75.8048 17.751C75.8584 17.8796 75.9121 18.0082 75.9674 18.1406C76.0499 18.3309 76.0499 18.3309 76.134 18.525C76.7294 20.3 76.748 22.832 75.9355 24.5447C75.4594 25.4075 75.1342 25.9625 74.2363 26.4107C74.6288 27.6983 75.0214 28.9859 75.4258 30.3125C75.4959 29.9206 75.566 29.5288 75.6382 29.125C76.0155 27.2052 76.7476 26.0961 78.1445 24.7143C78.6543 24.375 78.6543 24.375 79.0048 24.3856C79.334 24.5447 79.334 24.5447 79.5165 24.9032C80.1156 26.7681 79.9463 28.9186 79.1322 30.6836C78.5475 31.765 77.7693 32.854 76.6152 33.3661C76.447 33.3661 76.2788 33.3661 76.1055 33.3661C76.2176 34.6537 76.3298 35.9413 76.4453 37.2679C76.5329 36.9915 76.6205 36.7151 76.7108 36.4303C77.4005 34.5506 78.6839 33.2984 80.481 32.4543C81.0229 32.2149 81.2606 32.1786 81.8828 32.1786C82.0123 34.5747 81.5581 36.4764 80.1836 38.4554C79.9996 38.723 79.9996 38.723 79.8119 38.9961C78.7482 40.058 77.7683 40.6174 76.2754 40.8304C76.0511 42.2299 75.8268 43.6295 75.5957 45.0714C75.9321 44.3997 75.9321 44.3997 76.2754 43.7143C77.6143 41.9178 78.9968 41.0344 81.2031 40.6607C81.679 40.6375 81.679 40.6375 82.0527 40.6607C82.2227 40.8304 82.2227 40.8304 82.2864 41.3923C82.2648 42.8927 81.409 44.5297 80.3535 45.5804C80.2414 45.5804 80.1292 45.5804 80.0137 45.5804C79.9529 45.73 79.9529 45.73 79.8909 45.8826C79.2383 47.0141 77.7418 47.6187 76.5522 48.0157C75.9255 48.1691 75.388 48.1734 74.7461 48.125C74.7089 48.2116 74.6716 48.2982 74.6332 48.3874C74.2061 49.3651 73.7358 50.3149 73.246 51.2627C73.0229 51.6606 73.0229 51.6606 73.0469 52.0268C73.1189 51.9406 73.191 51.8545 73.2652 51.7657C74.7633 50.0104 76.0696 49.0532 78.4419 48.8354C79.2215 48.7946 79.93 48.8137 80.6934 48.9732C80.9375 49.6981 80.7578 50.0861 80.4352 50.7545C79.0633 53.0673 76.7369 54.3286 74.1998 55.0121C73.2324 55.184 72.291 54.9506 71.3477 54.7411C71.0709 55.1224 70.7949 55.5041 70.5193 55.8862C70.4411 55.9938 70.3629 56.1014 70.2823 56.2122C69.9141 56.7237 69.5637 57.215 69.3086 57.7947C69.442 57.7251 69.5754 57.6556 69.7128 57.5839C69.8913 57.4925 70.0699 57.4011 70.2538 57.3069C70.4292 57.2164 70.6047 57.1259 70.7854 57.0326C71.8443 56.5508 72.8004 56.3718 73.9496 56.3739C74.1385 56.3736 74.1385 56.3736 74.3312 56.3732C75.3643 56.393 76.2136 56.6153 77.125 57.1161C77.125 57.8329 77.0815 57.972 76.6152 58.4732C76.5031 58.4732 76.3909 58.4732 76.2754 58.4732C76.2193 58.6412 76.1632 58.8091 76.1055 58.9822C75.7776 59.2539 75.4579 59.4962 75.1072 59.735C75.0076 59.8027 74.9081 59.8705 74.8056 59.9404C73.1276 61.0472 71.2861 61.581 69.2767 61.2405C68.4759 61.0528 67.8101 60.752 67.0996 60.3393C67.0435 60.2273 66.9875 60.1154 66.9297 60C66.7493 60.1827 66.7493 60.1827 66.5653 60.3691C66.0955 60.8381 65.6071 61.284 65.1136 61.7283C64.4824 62.2956 64.4824 62.2956 63.8711 62.8839C63.9618 62.8492 64.0525 62.8144 64.1459 62.7786C66.0165 62.1033 67.7411 62.0134 69.592 62.8144C71.4387 63.6996 71.4387 63.6996 72.0273 64.2411C72.0273 64.409 72.0273 64.577 72.0273 64.75C69.8047 66.4191 67.2724 66.983 64.5508 66.7857C63.1045 66.535 62.0237 65.9546 61.1523 64.75C60.4314 65.0225 59.747 65.3568 59.0602 65.7043C58.9505 65.7594 58.8409 65.8145 58.728 65.8713C58.4598 66.0061 58.1918 66.1414 57.9238 66.2768C58.0331 66.2689 58.1424 66.2611 58.255 66.253C60.0839 66.18 61.7603 66.5858 63.1675 67.793C65.1139 69.6652 65.1139 69.6652 65.2305 70.6875C62.8428 71.4065 60.0454 71.6688 57.7539 70.5179C56.4724 69.7537 55.6845 68.8016 55.0352 67.4643C54.7388 67.5627 54.7388 67.5627 54.4364 67.6631C53.0163 68.1272 51.5981 68.5587 50.1393 68.8851C50.0147 68.9134 49.8901 68.9418 49.7617 68.971C49.0729 69.119 48.4326 69.1894 47.7285 69.1607C47.7285 69.2727 47.7285 69.3847 47.7285 69.5C47.9454 69.525 47.9454 69.525 48.1666 69.5504C49.9102 69.9081 51.5181 71.1422 52.943 72.1613C53.0732 72.254 53.2033 72.3466 53.3374 72.4421C54.0057 72.9314 54.5529 73.3957 55.0352 74.0804C54.621 74.3842 54.3247 74.6008 53.8457 74.7589C52.8963 74.4013 52.1795 73.6994 51.3971 73.0652C49.4971 71.5889 46.6461 70.032 44.1708 70.1892C41.0868 70.6532 37.9969 72.3903 35.7981 74.5575C35.4941 74.7589 35.4941 74.7589 35.145 74.7225C34.7215 74.5518 34.3491 74.3255 33.9648 74.0804C34.2064 73.3569 34.7415 73.0551 35.3348 72.6172C35.4556 72.5275 35.5764 72.4377 35.7009 72.3452C39.6094 69.5 39.6094 69.5 41.2715 69.5C41.2715 69.3881 41.2715 69.2761 41.2715 69.1607C41.1696 69.1532 41.0678 69.1456 40.9629 69.1378C39.8726 69.0445 38.8388 68.8498 37.7775 68.5882C37.6277 68.5528 37.478 68.5173 37.3238 68.4808C36.4635 68.2729 35.6294 68.0295 34.7966 67.7296C34.4492 67.6098 34.4492 67.6098 33.9648 67.6339C33.7966 67.9698 33.6284 68.3057 33.4551 68.6518C33.3429 68.6518 33.2308 68.6518 33.1152 68.6518C33.0723 68.7515 33.0294 68.8512 32.9851 68.954C32.3943 70.0143 31.2687 70.5676 30.1522 70.9314C28.0287 71.4631 25.8483 71.3712 23.7695 70.6875C23.9258 69.3178 25.1911 68.3432 26.1909 67.4855C27.65 66.4102 29.1275 66.2768 30.9062 66.2768C29.3081 65.4371 29.3081 65.4371 27.6777 64.5804C27.5656 64.8043 27.4534 65.0282 27.3379 65.2589C26.5434 66.1881 25.6434 66.5965 24.4492 66.7857C21.5952 66.9668 19.3722 66.3471 16.9727 64.75C16.9727 64.5821 16.9727 64.4141 16.9727 64.2411C18.7907 62.632 20.9099 62.2596 23.2598 62.375C23.8898 62.4609 24.5086 62.5753 25.1289 62.7143C24.8565 62.4949 24.5839 62.2759 24.3112 62.0569C24.1594 61.9349 24.0076 61.8129 23.8512 61.6872C23.4236 61.3437 23.4236 61.3437 22.9199 61.0179C22.9199 60.9059 22.9199 60.7939 22.9199 60.6786C22.4701 60.4308 22.2582 60.3393 21.7305 60.3393C21.5306 60.4696 21.3365 60.6087 21.1464 60.7528C19.8535 61.5834 18.2618 61.4476 16.8047 61.1623C14.9528 60.6396 12.6921 59.356 11.7051 57.625C11.875 57.1161 11.875 57.1161 12.1651 56.961C12.2831 56.9212 12.4012 56.8814 12.5228 56.8404C12.6396 56.7997 12.7563 56.7591 12.8766 56.7172C14.957 56.0775 17.0448 56.4028 18.9799 57.35C19.3372 57.5457 19.6866 57.7473 20.0312 57.9643C19.862 57.7645 19.862 57.7645 19.6894 57.5607C18.9164 56.644 18.1593 55.7322 17.4824 54.7411C17.3527 54.7971 17.2231 54.8531 17.0895 54.9107C15.282 55.4001 13.6962 54.9821 12.0907 54.064C10.283 52.9599 8.91259 51.6615 8.13672 49.6518C8.13672 49.4839 8.13672 49.3159 8.13672 49.1429C9.18606 48.6191 11.189 48.8658 12.2998 49.1641C13.7888 49.7067 14.8043 50.6423 15.7832 51.8572C15.742 51.7622 15.7008 51.6672 15.6584 51.5694C15.4725 51.1391 15.288 50.7082 15.1035 50.2774C15.0387 50.1279 14.9738 49.9784 14.907 49.8244C14.8457 49.6806 14.7844 49.5369 14.7212 49.3887C14.6642 49.2564 14.6073 49.124 14.5486 48.9876C14.4238 48.6339 14.4238 48.6339 14.4238 48.125C14.2753 48.1398 14.2753 48.1398 14.1238 48.1548C12.2411 48.2583 10.7618 47.4651 9.35736 46.2649C8.37895 45.3545 7.71937 44.3964 7.11718 43.2054C7.04359 43.0689 6.96999 42.9325 6.89416 42.7919C6.70555 42.09 6.75206 41.3829 6.77734 40.6607C8.79056 40.7372 10.4153 41.2633 11.875 42.6964C12.3068 43.2413 12.6954 43.8041 13.0644 44.3929C13.0644 43.8918 13.0409 43.5 12.9529 43.0172C12.9299 42.8893 12.9069 42.7613 12.8832 42.6295C12.8589 42.4977 12.8346 42.3658 12.8096 42.2299C12.7853 42.0954 12.7609 41.961 12.7359 41.8224C12.676 41.4916 12.6154 41.161 12.5547 40.8304C12.3973 40.7959 12.3973 40.7959 12.2367 40.7608C10.5874 40.3423 9.25876 39.3612 8.30664 37.9464C7.25821 36.0856 7.05094 34.2839 7.11718 32.1786C8.63765 32.2755 10.0084 33.0922 11.0254 34.2143C11.5882 35.0195 12.0357 35.8411 12.3848 36.7589C12.4073 36.5567 12.4299 36.3544 12.4531 36.146C12.4834 35.8802 12.5137 35.6145 12.5441 35.3488C12.5588 35.2155 12.5736 35.0822 12.5889 34.9449C12.6037 34.8164 12.6184 34.6879 12.6337 34.5556C12.6537 34.3783 12.6537 34.3783 12.6741 34.1975C12.7246 33.875 12.7246 33.875 12.8945 33.3661C12.7719 33.3519 12.6492 33.3377 12.5228 33.323C11.4812 33.0472 10.6476 32.1169 10.059 31.2449C8.8791 29.0047 8.95465 26.7593 9.66601 24.375C10.8639 24.5245 11.4143 24.984 12.1531 25.9117C12.9875 27.1561 13.2692 28.5297 13.5742 29.9732C13.6603 29.7154 13.6603 29.7154 13.7481 29.4524C14.0866 28.4385 14.4252 27.4246 14.7637 26.4107C14.6655 26.3722 14.5674 26.3338 14.4663 26.2941C13.4803 25.7198 12.9408 24.5487 12.6065 23.493C12.0698 21.3312 12.4766 19.1771 13.5742 17.25C14.2539 17.25 14.2539 17.25 14.5194 17.4621C15.775 18.9881 16.389 20.5268 16.293 22.5089C16.2369 22.8448 16.1808 23.1807 16.123 23.5268C16.7399 22.5191 17.3567 21.5114 17.9922 20.4732C17.7679 20.1373 17.5436 19.8014 17.3125 19.4554C16.5957 18.0497 16.5655 16.4715 16.958 14.9525C17.4227 13.6762 18.0418 12.4505 19.0117 11.4822C19.236 11.4822 19.4603 11.4822 19.6914 11.4822C20.6763 12.9115 20.7595 14.3858 20.541 16.0625C20.3698 16.7691 20.1497 17.4311 19.8613 18.0982C19.9903 17.9532 20.1194 17.8083 20.2523 17.6589C20.4228 17.4695 20.5934 17.2802 20.764 17.091C20.8489 16.9953 20.9338 16.8996 21.0212 16.8011C21.6727 16.0817 21.6727 16.0817 22.2402 15.8929C22.4253 15.2207 22.4253 15.2207 22.2482 14.5821C21.7851 13.5781 21.9432 12.0504 22.1812 10.9865C22.616 9.81628 23.9595 7.03652 25.5039 7.30669ZM67.9492 18.6072C68.0614 18.7191 68.1735 18.8311 68.2891 18.9464C68.2891 18.8345 68.2891 18.7225 68.2891 18.6072C68.1769 18.6072 68.0648 18.6072 67.9492 18.6072ZM72.8769 23.5268C73.0469 24.0357 73.0469 24.0357 73.0469 24.0357L72.8769 23.5268ZM73.0469 24.0357C73.2168 24.375 73.2168 24.375 73.2168 24.375L73.0469 24.0357ZM16.8027 24.5447C16.9727 24.8839 16.9727 24.8839 16.9727 24.8839L16.8027 24.5447ZM75.5957 30.9911C75.5957 31.327 75.5957 31.6629 75.5957 32.0089C75.6518 32.0089 75.7078 32.0089 75.7656 32.0089C75.7656 31.6731 75.7656 31.3372 75.7656 30.9911C75.7095 30.9911 75.6535 30.9911 75.5957 30.9911ZM74.4062 31.3304C74.5762 31.6697 74.5762 31.6697 74.5762 31.6697L74.4062 31.3304ZM75.2559 45.5804C75.4258 45.9197 75.4258 45.9197 75.4258 45.9197L75.2559 45.5804ZM75.0859 46.0893C75.2559 46.4286 75.2559 46.4286 75.2559 46.4286L75.0859 46.0893ZM74.916 46.5982C75.0859 46.9375 75.0859 46.9375 75.0859 46.9375L74.916 46.5982ZM15.9531 52.0268C16.123 52.3661 16.123 52.3661 16.123 52.3661L15.9531 52.0268ZM72.5371 52.3661C72.707 52.7054 72.707 52.7054 72.707 52.7054L72.5371 52.3661ZM70.668 53.0447C70.8379 53.3839 70.8379 53.3839 70.8379 53.3839L70.668 53.0447Z" fill="black" fill-opacity="0.25"/>
<path d="M24.5039 4.30669C24.6045 4.34103 24.705 4.37536 24.8086 4.41073C25.359 6.33397 25.2371 7.91797 24.2776 9.68026C24.1166 9.96054 23.9544 10.2401 23.7891 10.5179C23.9284 10.4116 24.0677 10.3053 24.2112 10.1958C24.3962 10.0557 24.5811 9.9157 24.7661 9.77569C24.8577 9.70571 24.9492 9.63573 25.0436 9.56363C25.4269 9.27425 25.7863 9.01006 26.225 8.81084C26.3184 8.75836 26.4117 8.70588 26.5078 8.6518C26.5866 8.32604 26.6642 7.99989 26.7322 7.67172C27.0446 6.65156 27.9644 5.60889 28.8867 5.0893C30.2457 4.52858 31.5003 4.30525 32.9648 4.41073C33.118 4.83112 33.1501 5.04072 33.0133 5.47299C32.0696 7.34224 30.915 8.63822 28.8867 9.33037C28.4121 9.3761 28.4121 9.3761 27.9521 9.38339C26.7095 9.41961 25.879 10.2502 24.9785 11.0268C25.0834 11.0023 25.1884 10.9778 25.2965 10.9526C27.035 10.5721 28.6903 10.4681 30.278 11.4191C30.558 11.6175 30.8281 11.8298 31.0957 12.0447C30.8123 12.8936 29.9913 13.1693 29.2266 13.5714C27.5276 14.3231 25.732 14.5826 23.9557 13.9107C23.4246 13.643 23.0304 13.3009 22.5996 12.8929C22.5225 12.9768 22.4454 13.0608 22.366 13.1473C22.0898 13.4018 22.0898 13.4018 21.75 13.4018C21.6939 13.5698 21.6378 13.7377 21.5801 13.9107C21.4679 13.9107 21.3558 13.9107 21.2402 13.9107C21.2402 14.0227 21.2402 14.1347 21.2402 14.25C21.1281 14.25 21.0159 14.25 20.9004 14.25C20.8548 14.348 20.8093 14.446 20.7623 14.5469C20.5576 14.9341 20.3213 15.2634 20.0508 15.6072C20.1391 15.5601 20.2273 15.5131 20.3183 15.4647C20.4368 15.4032 20.5553 15.3418 20.6774 15.2785C20.8518 15.187 20.8518 15.187 21.0298 15.0936C22.5856 14.4186 24.2903 14.7084 25.8281 15.2679C25.8281 16.139 25.5699 16.3455 24.9971 16.9597C23.7601 18.1466 22.346 18.8028 20.6103 18.8403C19.6718 18.7727 18.8744 18.5186 18.0117 18.1518C17.3239 19.2011 16.6787 20.2402 16.1426 21.375C16.2313 21.3094 16.32 21.2438 16.4114 21.1762C18.2074 19.9076 19.7257 19.5635 21.9199 19.6786C22.0709 20.1868 22.1232 20.4448 21.9206 20.9436C21.8398 21.0755 21.7589 21.2074 21.6757 21.3432C21.5551 21.5443 21.5551 21.5443 21.4321 21.7494C21.3688 21.8498 21.3055 21.9502 21.2402 22.0536C21.1281 22.0536 21.0159 22.0536 20.9004 22.0536C20.859 22.1548 20.8176 22.2561 20.7749 22.3604C20.2253 23.3135 18.8498 23.9349 17.8418 24.2589C16.8502 24.4057 15.9346 24.4958 14.9531 24.2589C14.2057 25.5382 13.9206 26.9001 13.5937 28.3304C13.6535 28.2442 13.7133 28.1581 13.775 28.0693C14.943 26.4434 16.1626 25.5356 18.1604 25.1496C18.6914 25.1072 18.6914 25.1072 19.3711 25.1072C19.3641 26.6849 18.876 28.054 17.8219 29.2462C16.6664 30.32 15.4133 31.0789 13.8061 31.0553C13.6703 31.0537 13.5345 31.0522 13.3946 31.0506C13.2409 31.0477 13.2409 31.0477 13.084 31.0447C12.9033 31.9223 12.8942 32.7621 12.9034 33.6529C12.9042 33.794 12.905 33.935 12.9058 34.0803C12.9077 34.4256 12.9108 34.7708 12.9141 35.1161C12.9562 35.0271 12.9984 34.9381 13.0418 34.8464C13.9241 33.0277 15.144 31.8998 16.9922 31.0447C17.4681 30.9174 17.4681 30.9174 17.8418 30.875C18.1585 31.1912 18.0633 31.6805 18.0754 32.1049C18.0654 33.7406 17.6047 35.252 16.4824 36.4732C16.3703 36.4732 16.2581 36.4732 16.1426 36.4732C16.0865 36.6412 16.0304 36.8091 15.9727 36.9822C15.5459 37.2545 15.5459 37.2545 15.0062 37.5229C14.8303 37.6128 14.6544 37.7027 14.4732 37.7953C13.9108 38.0087 13.5098 38.0401 12.9141 38C13.0185 38.6082 13.1254 39.216 13.2327 39.8237C13.2622 39.996 13.2918 40.1683 13.3223 40.3459C13.3518 40.5121 13.3814 40.6783 13.4119 40.8495C13.4519 41.0787 13.4519 41.0787 13.4928 41.3125C13.5911 41.7213 13.7293 42.0447 13.9336 42.4107C13.9586 42.2835 13.9835 42.1562 14.0093 42.0251C14.4105 40.197 15.1689 38.6813 16.6523 37.4911C17.1799 37.1721 17.3586 37.1518 18.0117 37.1518C18.5989 39.214 18.8257 41.0453 17.8206 43.0151C17.2291 44.0138 16.3951 45.0237 15.293 45.4643C15.1247 45.4643 14.9565 45.4643 14.7832 45.4643C15.4587 46.9736 16.191 48.4291 16.9922 49.875C16.9843 49.662 16.9764 49.449 16.9683 49.2296C16.9125 47.1032 17.0699 45.5794 18.4319 43.8633C18.764 43.524 19.0799 43.3673 19.541 43.2589C20.8241 44.7337 21.0597 46.6075 20.9761 48.5013C20.8493 50.0223 20.2232 51.2198 19.0916 52.2315C19.0156 52.2936 18.9396 52.3557 18.8613 52.4197C19.5374 53.8783 20.758 55.0253 21.8774 56.1518C21.9879 56.2636 22.0983 56.3754 22.2121 56.4906C22.3711 56.6483 22.3711 56.6483 22.5332 56.8092C22.6278 56.9032 22.7224 56.9972 22.8198 57.0941C23.1255 57.353 23.4247 57.5149 23.7891 57.6786C23.7111 57.5841 23.6331 57.4897 23.5528 57.3923C22.2085 55.7232 21.5113 54.1582 21.527 51.9956C21.5272 51.8697 21.5274 51.7439 21.5276 51.6142C21.5436 50.7115 21.6742 50.0091 22.0898 49.1964C23.6131 49.5337 24.8047 50.8284 25.6628 52.0698C27.2372 54.675 27.3927 56.9684 26.6777 59.8839C28.1354 60.8279 29.6893 61.5396 31.2656 62.2589C31.1392 62.133 31.0128 62.007 30.8826 61.8773C30.7286 61.7233 30.5747 61.5694 30.416 61.4107C30.3023 61.2988 30.1886 61.1868 30.0715 61.0714C28.7709 59.7119 27.9503 58.2222 27.9521 56.3214C27.9715 55.5608 28.0521 54.9761 28.377 54.2857C29.7402 54.3147 30.5275 55.0828 31.4654 56.0073C32.2368 56.834 32.8169 57.6791 33.3047 58.6964C33.3715 58.8231 33.4383 58.9497 33.5071 59.0801C34.1012 60.3304 34.0881 61.5797 33.9844 62.9375C33.9283 63.0495 33.8722 63.1614 33.8145 63.2768C33.9074 63.2967 34.0003 63.3167 34.096 63.3372C34.759 63.4817 35.419 63.632 36.0752 63.805C37.7563 64.2476 39.4457 64.6235 41.153 64.952C41.3456 64.9906 41.5382 65.0291 41.7366 65.0689C42.8355 65.2739 43.7624 65.3556 44.8594 65.1429C45.1246 65.0934 45.1246 65.0934 45.3952 65.043C46.0144 64.923 46.6317 64.7955 47.2489 64.6658C47.4669 64.6203 47.685 64.5749 47.9096 64.5281C49.4521 64.2036 50.9822 63.85 52.5059 63.4464C52.7323 63.3895 52.9588 63.3327 53.1855 63.2768C53.1551 63.1799 53.1246 63.0831 53.0933 62.9832C52.572 60.9992 53.2778 59.3678 54.2529 57.6408C54.5035 57.2364 54.7434 56.8511 55.0547 56.4911C55.1668 56.4911 55.279 56.4911 55.3945 56.4911C55.4342 56.3936 55.4738 56.296 55.5147 56.1955C56.038 55.2833 57.122 54.4862 58.1345 54.2009C58.2957 54.1729 58.4569 54.1449 58.623 54.1161C59.2509 55.0563 59.2102 56.257 59.0266 57.3499C58.5098 59.4637 57.1391 61.1579 55.3945 62.4286C55.9616 62.1649 56.5277 61.8993 57.0937 61.6334C57.2525 61.5596 57.4114 61.4858 57.575 61.4097C58.5359 60.9569 59.433 60.465 60.3223 59.8839C60.2677 59.6917 60.2132 59.4995 60.157 59.3015C59.5634 56.9127 59.9036 54.4102 61.1055 52.2726C61.865 51.1283 62.9288 49.7379 64.2305 49.1964C64.6022 49.2177 64.6022 49.2177 64.9102 49.3661C65.7348 50.6011 65.5728 52.4478 65.3097 53.859C64.9421 55.1702 64.3346 56.233 63.5508 57.3393C63.4386 57.5073 63.3265 57.6752 63.2109 57.8482C65.9059 55.4261 65.9059 55.4261 68.1387 52.5893C68.1387 52.4773 68.1387 52.3654 68.1387 52.25C67.8949 52.0299 67.8949 52.0299 67.5864 51.8047C66.7731 51.1357 66.4272 50.3472 66.0996 49.3661C65.9284 47.1934 66.1349 45.5552 67.1191 43.5982C67.1752 43.4863 67.2313 43.3743 67.2891 43.2589C67.7424 43.2723 68.047 43.3523 68.3982 43.6446C69.3901 44.718 70.0356 46.2169 70.0244 47.6882C70.0239 47.8161 70.0233 47.9441 70.0227 48.0759C70.0213 48.2077 70.0199 48.3396 70.0184 48.4755C70.0177 48.61 70.0169 48.7444 70.0161 48.883C70.0141 49.2137 70.0111 49.5444 70.0078 49.875C71.0722 47.7757 71.0722 47.7757 72.0469 45.6339C71.9625 45.5865 71.8782 45.539 71.7913 45.4901C70.3918 44.6656 69.2207 43.6388 68.7022 42.0562C68.2773 40.3916 68.4974 38.8168 68.8184 37.1518C69.6309 37.119 70.0773 37.304 70.6875 37.8304C72.1196 39.2353 72.6402 40.6462 73.0664 42.5804C73.4091 41.0588 73.6976 39.5446 73.916 38C73.7198 37.986 73.5235 37.972 73.3213 37.9576C71.8474 37.7585 70.956 37.0472 70.0058 35.9232C68.8994 34.3911 68.8999 32.8597 68.9883 31.0447C70.4235 31.0717 71.4923 31.7381 72.5387 32.6967C73.2691 33.4998 73.744 34.4312 74.0859 35.4554C74.1423 33.9519 73.9706 32.5277 73.7461 31.0447C73.5568 31.0587 73.3676 31.0727 73.1726 31.0871C71.8414 31.0847 70.4516 30.4375 69.498 29.5179C68.4959 28.3519 67.693 27.1695 67.597 25.6055C67.6076 25.497 67.6181 25.3886 67.6289 25.2768C68.2704 24.9566 68.897 25.033 69.5664 25.2231C71.1236 25.8004 72.2207 26.693 73.2363 27.9911C72.9419 26.6952 72.579 25.4778 72.0469 24.2589C71.8458 24.2688 71.6447 24.2786 71.4375 24.2888C69.8722 24.343 68.5992 24.377 67.2891 23.4107C67.1552 23.3141 67.0214 23.2174 66.8835 23.1178C65.876 22.3098 65.2488 21.3703 64.7402 20.1875C64.7402 20.0756 64.7402 19.9636 64.7402 19.8482C66.2851 19.3341 67.8979 19.6702 69.3281 20.3572C69.9088 20.6761 70.4122 21.0508 70.8574 21.5447C70.6086 20.8747 70.2936 20.2744 69.9335 19.6574C69.8321 19.482 69.7306 19.3066 69.6261 19.1259C69.3796 18.7412 69.1579 18.4524 68.8184 18.1518C68.6641 18.2323 68.5099 18.3128 68.3511 18.3957C67.0206 19.0343 65.7123 18.9555 64.3274 18.5004C63.5687 18.1896 62.8404 17.8062 62.1914 17.3036C62.1353 17.1356 62.0793 16.9677 62.0215 16.7947C61.9093 16.7947 61.7972 16.7947 61.6816 16.7947C61.3099 16.3175 61.3099 16.3175 61.0019 15.7768C61.058 15.6089 61.1141 15.4409 61.1719 15.2679C62.7061 14.5159 64.3105 14.6145 65.8912 15.1234C66.258 15.2635 66.6017 15.425 66.9492 15.6072C66.1908 14.7211 65.4073 13.8752 64.5703 13.0625C64.1306 13.221 63.769 13.3632 63.4021 13.6563C62.2371 14.4773 60.6617 14.3943 59.3133 14.1652C58.2772 13.9123 57.4445 13.5175 56.584 12.8929C56.4438 12.7914 56.3036 12.6899 56.1592 12.5854C56.0751 12.5189 55.991 12.4524 55.9043 12.3839C56.2191 11.6178 56.6456 11.3713 57.3778 11.0228C58.8355 10.5958 60.5442 10.7403 62.0215 11.0268C60.3887 9.73524 60.3887 9.73524 58.3808 9.35754C57.4395 9.29908 56.4157 8.79351 55.7344 8.14287C55.7344 8.03091 55.7344 7.91895 55.7344 7.80359C55.6222 7.80359 55.5101 7.80359 55.3945 7.80359C55.1335 7.36672 54.8756 6.92846 54.6193 6.48886C54.5077 6.3032 54.5077 6.3032 54.3939 6.11379C54.3244 5.99351 54.2548 5.87324 54.1832 5.74932C54.1182 5.63916 54.0533 5.529 53.9863 5.4155C53.8375 5.01448 53.8955 4.80779 54.0352 4.41073C55.8722 4.2955 57.4998 4.57897 58.9629 5.76787C60.2963 7.13756 60.2963 7.13756 60.3481 8.1283C60.5658 8.91944 61.0979 9.15435 61.7772 9.56363C61.898 9.63995 62.0188 9.71627 62.1433 9.7949C62.4407 9.98224 62.7406 10.1656 63.041 10.3482C62.9694 10.2288 62.8978 10.1094 62.824 9.98642C61.9326 8.38248 61.6204 6.8384 62.0109 5.02569C62.0704 4.82275 62.13 4.61982 62.1914 4.41073C62.4901 4.29543 62.4901 4.29543 62.8711 4.24109C64.2258 5.02409 65.1548 6.57461 65.7598 7.97323C66.1044 9.37117 66.1348 10.7794 65.4199 12.0447C65.6387 12.7723 66.2662 13.2536 66.8005 13.7623C67.1426 14.0881 67.4723 14.417 67.7988 14.7589C67.7988 14.8709 67.7988 14.9829 67.7988 15.0982C67.911 15.0982 68.0231 15.0982 68.1387 15.0982C68.0916 14.9856 68.0445 14.873 67.996 14.757C67.9344 14.6072 67.8729 14.4574 67.8094 14.303C67.7483 14.1554 67.6872 14.0078 67.6243 13.8557C67.1347 12.5113 67.165 11.0821 67.6979 9.75183C67.9443 9.26231 68.2 8.78443 68.4785 8.31252C69.6043 8.77733 70.1452 9.88578 70.6132 10.9546C71.3068 12.7859 71.5141 14.4276 70.716 16.2592C70.5106 16.6379 70.2756 16.9666 70.0078 17.3036C70.3223 17.9579 70.6864 18.5834 71.0486 19.2121C71.1119 19.3223 71.1752 19.4325 71.2404 19.5461C71.3958 19.8165 71.5514 20.0869 71.707 20.3572C71.6991 20.2235 71.6913 20.0899 71.6831 19.9523C71.6155 17.915 71.9929 16.117 73.4062 14.5893C73.5748 14.4183 73.7443 14.2482 73.916 14.0804C74.3419 14.248 74.5574 14.359 74.8048 14.751C74.8584 14.8796 74.9121 15.0082 74.9674 15.1406C75.0499 15.3309 75.0499 15.3309 75.134 15.525C75.7294 17.3 75.748 19.832 74.9355 21.5447C74.4594 22.4075 74.1342 22.9625 73.2363 23.4107C73.6288 24.6983 74.0214 25.9859 74.4258 27.3125C74.4959 26.9206 74.566 26.5288 74.6382 26.125C75.0155 24.2052 75.7476 23.0961 77.1445 21.7143C77.6543 21.375 77.6543 21.375 78.0048 21.3856C78.334 21.5447 78.334 21.5447 78.5165 21.9032C79.1156 23.7681 78.9463 25.9186 78.1322 27.6836C77.5475 28.765 76.7693 29.854 75.6152 30.3661C75.447 30.3661 75.2788 30.3661 75.1055 30.3661C75.2176 31.6537 75.3298 32.9413 75.4453 34.2679C75.5329 33.9915 75.6205 33.7151 75.7108 33.4303C76.4005 31.5506 77.6839 30.2984 79.481 29.4543C80.0229 29.2149 80.2606 29.1786 80.8828 29.1786C81.0123 31.5747 80.5581 33.4764 79.1836 35.4554C78.9996 35.723 78.9996 35.723 78.8119 35.9961C77.7482 37.058 76.7683 37.6174 75.2754 37.8304C75.0511 39.2299 74.8268 40.6295 74.5957 42.0714C74.9321 41.3997 74.9321 41.3997 75.2754 40.7143C76.6143 38.9178 77.9968 38.0344 80.2031 37.6607C80.679 37.6375 80.679 37.6375 81.0527 37.6607C81.2227 37.8304 81.2227 37.8304 81.2864 38.3923C81.2648 39.8927 80.409 41.5297 79.3535 42.5804C79.2414 42.5804 79.1292 42.5804 79.0137 42.5804C78.9529 42.73 78.9529 42.73 78.8909 42.8826C78.2383 44.0141 76.7418 44.6187 75.5522 45.0157C74.9255 45.1691 74.388 45.1734 73.7461 45.125C73.7089 45.2116 73.6716 45.2982 73.6332 45.3874C73.2061 46.3651 72.7358 47.3149 72.246 48.2627C72.0229 48.6606 72.0229 48.6606 72.0469 49.0268C72.1189 48.9406 72.191 48.8545 72.2652 48.7657C73.7633 47.0104 75.0696 46.0532 77.4419 45.8354C78.2215 45.7946 78.93 45.8137 79.6934 45.9732C79.9375 46.6981 79.7578 47.0861 79.4352 47.7545C78.0633 50.0673 75.7369 51.3286 73.1998 52.0121C72.2324 52.184 71.291 51.9506 70.3477 51.7411C70.0709 52.1224 69.7949 52.5041 69.5193 52.8862C69.4411 52.9938 69.3629 53.1014 69.2823 53.2122C68.9141 53.7237 68.5637 54.215 68.3086 54.7947C68.442 54.7251 68.5754 54.6556 68.7128 54.5839C68.8913 54.4925 69.0699 54.4011 69.2538 54.3069C69.4292 54.2164 69.6047 54.1259 69.7854 54.0326C70.8443 53.5508 71.8004 53.3718 72.9496 53.3739C73.1385 53.3736 73.1385 53.3736 73.3312 53.3732C74.3643 53.393 75.2136 53.6153 76.125 54.1161C76.125 54.8329 76.0815 54.972 75.6152 55.4732C75.5031 55.4732 75.3909 55.4732 75.2754 55.4732C75.2193 55.6412 75.1632 55.8091 75.1055 55.9822C74.7776 56.2539 74.4579 56.4962 74.1072 56.735C74.0076 56.8027 73.9081 56.8705 73.8056 56.9404C72.1276 58.0472 70.2861 58.581 68.2767 58.2405C67.4759 58.0528 66.8101 57.752 66.0996 57.3393C66.0435 57.2273 65.9875 57.1154 65.9297 57C65.7493 57.1827 65.7493 57.1827 65.5653 57.3691C65.0955 57.8381 64.6071 58.284 64.1136 58.7283C63.4824 59.2956 63.4824 59.2956 62.8711 59.8839C62.9618 59.8492 63.0525 59.8144 63.1459 59.7786C65.0165 59.1033 66.7411 59.0134 68.592 59.8144C70.4387 60.6996 70.4387 60.6996 71.0273 61.2411C71.0273 61.409 71.0273 61.577 71.0273 61.75C68.8047 63.4191 66.2724 63.983 63.5508 63.7857C62.1045 63.535 61.0237 62.9546 60.1523 61.75C59.4314 62.0225 58.747 62.3568 58.0602 62.7043C57.9505 62.7594 57.8409 62.8145 57.728 62.8713C57.4598 63.0061 57.1918 63.1414 56.9238 63.2768C57.0331 63.2689 57.1424 63.2611 57.255 63.253C59.0839 63.18 60.7603 63.5858 62.1675 64.793C64.1139 66.6652 64.1139 66.6652 64.2305 67.6875C61.8428 68.4065 59.0454 68.6688 56.7539 67.5179C55.4724 66.7537 54.6845 65.8016 54.0352 64.4643C53.7388 64.5627 53.7388 64.5627 53.4364 64.6631C52.0163 65.1272 50.5981 65.5587 49.1393 65.8851C49.0147 65.9134 48.8901 65.9418 48.7617 65.971C48.0729 66.119 47.4326 66.1894 46.7285 66.1607C46.7285 66.2727 46.7285 66.3847 46.7285 66.5C46.9454 66.525 46.9454 66.525 47.1666 66.5504C48.9102 66.9081 50.5181 68.1422 51.943 69.1613C52.0732 69.254 52.2033 69.3466 52.3374 69.4421C53.0057 69.9314 53.5529 70.3957 54.0352 71.0804C53.621 71.3842 53.3247 71.6008 52.8457 71.7589C51.8963 71.4013 51.1795 70.6994 50.3971 70.0652C48.4971 68.5889 45.6461 67.032 43.1708 67.1892C40.0868 67.6532 36.9969 69.3903 34.7981 71.5575C34.4941 71.7589 34.4941 71.7589 34.145 71.7225C33.7215 71.5518 33.3491 71.3255 32.9648 71.0804C33.2064 70.3569 33.7415 70.0551 34.3348 69.6172C34.4556 69.5275 34.5764 69.4377 34.7009 69.3452C38.6094 66.5 38.6094 66.5 40.2715 66.5C40.2715 66.3881 40.2715 66.2761 40.2715 66.1607C40.1696 66.1532 40.0678 66.1456 39.9629 66.1378C38.8726 66.0445 37.8388 65.8498 36.7775 65.5882C36.6277 65.5528 36.478 65.5173 36.3238 65.4808C35.4635 65.2729 34.6294 65.0295 33.7966 64.7296C33.4492 64.6098 33.4492 64.6098 32.9648 64.6339C32.7966 64.9698 32.6284 65.3057 32.4551 65.6518C32.3429 65.6518 32.2308 65.6518 32.1152 65.6518C32.0723 65.7515 32.0294 65.8512 31.9851 65.954C31.3943 67.0143 30.2687 67.5676 29.1522 67.9314C27.0287 68.4631 24.8483 68.3712 22.7695 67.6875C22.9258 66.3178 24.1911 65.3432 25.1909 64.4855C26.65 63.4102 28.1275 63.2768 29.9062 63.2768C28.3081 62.4371 28.3081 62.4371 26.6777 61.5804C26.5656 61.8043 26.4534 62.0282 26.3379 62.2589C25.5434 63.1881 24.6434 63.5965 23.4492 63.7857C20.5952 63.9668 18.3722 63.3471 15.9727 61.75C15.9727 61.5821 15.9727 61.4141 15.9727 61.2411C17.7907 59.632 19.9099 59.2596 22.2598 59.375C22.8898 59.4609 23.5086 59.5753 24.1289 59.7143C23.8565 59.4949 23.5839 59.2759 23.3112 59.0569C23.1594 58.9349 23.0076 58.8129 22.8512 58.6872C22.4236 58.3437 22.4236 58.3437 21.9199 58.0179C21.9199 57.9059 21.9199 57.7939 21.9199 57.6786C21.4701 57.4308 21.2582 57.3393 20.7305 57.3393C20.5306 57.4696 20.3365 57.6087 20.1464 57.7528C18.8535 58.5834 17.2618 58.4476 15.8047 58.1623C13.9528 57.6396 11.6921 56.356 10.7051 54.625C10.875 54.1161 10.875 54.1161 11.1651 53.961C11.2831 53.9212 11.4012 53.8814 11.5228 53.8404C11.6396 53.7997 11.7563 53.7591 11.8766 53.7172C13.957 53.0775 16.0448 53.4028 17.9799 54.35C18.3372 54.5457 18.6866 54.7473 19.0312 54.9643C18.862 54.7645 18.862 54.7645 18.6894 54.5607C17.9164 53.644 17.1593 52.7322 16.4824 51.7411C16.3527 51.7971 16.2231 51.8531 16.0895 51.9107C14.282 52.4001 12.6962 51.9821 11.0907 51.064C9.28298 49.9599 7.91259 48.6615 7.13672 46.6518C7.13672 46.4839 7.13672 46.3159 7.13672 46.1429C8.18606 45.6191 10.189 45.8658 11.2998 46.1641C12.7888 46.7067 13.8043 47.6423 14.7832 48.8572C14.742 48.7622 14.7008 48.6672 14.6584 48.5694C14.4725 48.1391 14.288 47.7082 14.1035 47.2774C14.0387 47.1279 13.9738 46.9784 13.907 46.8244C13.8457 46.6806 13.7844 46.5369 13.7212 46.3887C13.6642 46.2564 13.6073 46.124 13.5486 45.9876C13.4238 45.6339 13.4238 45.6339 13.4238 45.125C13.2753 45.1398 13.2753 45.1398 13.1238 45.1548C11.2411 45.2583 9.76181 44.4651 8.35736 43.2649C7.37895 42.3545 6.71937 41.3964 6.11718 40.2054C6.04359 40.0689 5.96999 39.9325 5.89416 39.7919C5.70555 39.09 5.75206 38.3829 5.77734 37.6607C7.79056 37.7372 9.41529 38.2633 10.875 39.6964C11.3068 40.2413 11.6954 40.8041 12.0644 41.3929C12.0644 40.8918 12.0409 40.5 11.9529 40.0172C11.9299 39.8893 11.9069 39.7613 11.8832 39.6295C11.8589 39.4977 11.8346 39.3658 11.8096 39.2299C11.7853 39.0954 11.7609 38.961 11.7359 38.8224C11.676 38.4916 11.6154 38.161 11.5547 37.8304C11.3973 37.7959 11.3973 37.7959 11.2367 37.7608C9.58743 37.3423 8.25876 36.3612 7.30664 34.9464C6.25821 33.0856 6.05094 31.2839 6.11718 29.1786C7.63765 29.2755 9.00844 30.0922 10.0254 31.2143C10.5882 32.0195 11.0357 32.8411 11.3848 33.7589C11.4073 33.5567 11.4299 33.3544 11.4531 33.146C11.4834 32.8802 11.5137 32.6145 11.5441 32.3488C11.5588 32.2155 11.5736 32.0822 11.5889 31.9449C11.6037 31.8164 11.6184 31.6879 11.6337 31.5556C11.6537 31.3783 11.6537 31.3783 11.6741 31.1975C11.7246 30.875 11.7246 30.875 11.8945 30.3661C11.7719 30.3519 11.6492 30.3377 11.5228 30.323C10.4812 30.0472 9.64758 29.1169 9.05896 28.2449C7.8791 26.0047 7.95465 23.7593 8.66601 21.375C9.86386 21.5245 10.4143 21.984 11.1531 22.9117C11.9875 24.1561 12.2692 25.5297 12.5742 26.9732C12.6603 26.7154 12.6603 26.7154 12.7481 26.4524C13.0866 25.4385 13.4252 24.4246 13.7637 23.4107C13.6655 23.3722 13.5674 23.3338 13.4663 23.2941C12.4803 22.7198 11.9408 21.5487 11.6065 20.493C11.0698 18.3312 11.4766 16.1771 12.5742 14.25C13.2539 14.25 13.2539 14.25 13.5194 14.4621C14.775 15.9881 15.389 17.5268 15.293 19.5089C15.2369 19.8448 15.1808 20.1807 15.123 20.5268C15.7399 19.5191 16.3567 18.5114 16.9922 17.4732C16.7679 17.1373 16.5436 16.8014 16.3125 16.4554C15.5957 15.0497 15.5655 13.4715 15.958 11.9525C16.4227 10.6762 17.0418 9.45047 18.0117 8.48216C18.236 8.48216 18.4603 8.48216 18.6914 8.48216C19.6763 9.91149 19.7595 11.3858 19.541 13.0625C19.3698 13.7691 19.1497 14.4311 18.8613 15.0982C18.9903 14.9532 19.1194 14.8083 19.2523 14.6589C19.4228 14.4695 19.5934 14.2802 19.764 14.091C19.8489 13.9953 19.9338 13.8996 20.0212 13.8011C20.6727 13.0817 20.6727 13.0817 21.2402 12.8929C21.4253 12.2207 21.4253 12.2207 21.2482 11.5821C20.7851 10.5781 20.9432 9.05038 21.1812 7.98649C21.616 6.81628 22.9595 4.03652 24.5039 4.30669ZM66.9492 15.6072C67.0614 15.7191 67.1735 15.8311 67.2891 15.9464C67.2891 15.8345 67.2891 15.7225 67.2891 15.6072C67.1769 15.6072 67.0648 15.6072 66.9492 15.6072ZM71.8769 20.5268C72.0469 21.0357 72.0469 21.0357 72.0469 21.0357L71.8769 20.5268ZM72.0469 21.0357C72.2168 21.375 72.2168 21.375 72.2168 21.375L72.0469 21.0357ZM15.8027 21.5447C15.9727 21.8839 15.9727 21.8839 15.9727 21.8839L15.8027 21.5447ZM74.5957 27.9911C74.5957 28.327 74.5957 28.6629 74.5957 29.0089C74.6518 29.0089 74.7078 29.0089 74.7656 29.0089C74.7656 28.6731 74.7656 28.3372 74.7656 27.9911C74.7095 27.9911 74.6535 27.9911 74.5957 27.9911ZM73.4062 28.3304C73.5762 28.6697 73.5762 28.6697 73.5762 28.6697L73.4062 28.3304ZM74.2559 42.5804C74.4258 42.9197 74.4258 42.9197 74.4258 42.9197L74.2559 42.5804ZM74.0859 43.0893C74.2559 43.4286 74.2559 43.4286 74.2559 43.4286L74.0859 43.0893ZM73.916 43.5982C74.0859 43.9375 74.0859 43.9375 74.0859 43.9375L73.916 43.5982ZM14.9531 49.0268C15.123 49.3661 15.123 49.3661 15.123 49.3661L14.9531 49.0268ZM71.5371 49.3661C71.707 49.7054 71.707 49.7054 71.707 49.7054L71.5371 49.3661ZM69.668 50.0447C69.8379 50.3839 69.8379 50.3839 69.8379 50.3839L69.668 50.0447Z" fill="#FAFAFA"/>
</svg>
